<svg width="21" height="17" viewBox="0 0 21 17" fill="none" xmlns="http://www.w3.org/2000/svg">
<path d="M13.6028 8.20058L9.24797 5.29735C9.19339 5.26101 9.12998 5.24012 9.06449 5.23693C8.99899 5.23373 8.93385 5.24835 8.87599 5.27921C8.81801 5.30938 8.76951 5.35502 8.73588 5.41107C8.70224 5.46712 8.6848 5.53139 8.68547 5.59675V11.4032C8.6848 11.4686 8.70224 11.5328 8.73588 11.5889C8.76951 11.6449 8.81801 11.6906 8.87599 11.7207C8.92941 11.7484 8.98827 11.7639 9.04837 11.7661C9.12007 11.7674 9.19021 11.7451 9.24797 11.7026L13.6028 8.79937C13.6534 8.7675 13.6951 8.72332 13.724 8.67096C13.7529 8.61861 13.7681 8.55978 13.7681 8.49998C13.7681 8.44017 13.7529 8.38134 13.724 8.32899C13.6951 8.27663 13.6534 8.23245 13.6028 8.20058ZM9.41128 10.7228V6.27719L12.75 8.49998L9.41128 10.7228ZM19.7994 3.31046C19.7244 3.03384 19.5863 2.77841 19.3957 2.56429C19.2052 2.35017 18.9676 2.18322 18.7016 2.07659C15.6351 0.897154 10.7087 0.915299 10.5 0.915299C10.2913 0.915299 5.36491 0.897154 2.29837 2.07659C2.03235 2.18322 1.79473 2.35017 1.60422 2.56429C1.41372 2.77841 1.27555 3.03384 1.20059 3.31046C0.973777 4.1905 0.701599 5.80542 0.701599 8.49998C0.701599 11.1945 0.973777 12.8095 1.20059 13.6895C1.27555 13.9661 1.41372 14.2215 1.60422 14.4357C1.79473 14.6498 2.03235 14.8167 2.29837 14.9234C5.36491 16.1028 10.2913 16.0847 10.5 16.0847H10.5635C11.1895 16.0847 15.7893 16.0484 18.7016 14.9234C18.9676 14.8167 19.2052 14.6498 19.3957 14.4357C19.5863 14.2215 19.7244 13.9661 19.7994 13.6895C20.0262 12.8095 20.2984 11.1945 20.2984 8.49998C20.2984 5.80542 20.0262 4.1905 19.7994 3.31046ZM19.0917 13.508C19.0481 13.6732 18.9663 13.8258 18.8528 13.9534C18.7393 14.0811 18.5974 14.1803 18.4385 14.2429C15.499 15.377 10.5544 15.3588 10.5 15.3588C10.4456 15.3588 5.50099 15.377 2.56148 14.2429C2.40258 14.1803 2.26066 14.0811 2.14718 13.9534C2.0337 13.8258 1.95185 13.6732 1.90825 13.508C1.69051 12.6643 1.42741 11.1129 1.42741 8.49998C1.42741 5.88707 1.69051 4.33566 1.90825 3.49191C1.95185 3.32676 2.0337 3.17419 2.14718 3.04653C2.26066 2.91887 2.40258 2.8197 2.56148 2.75703C5.50099 1.62296 10.4456 1.64111 10.5 1.64111C10.5544 1.64111 15.499 1.62296 18.4385 2.75703C18.5974 2.8197 18.7393 2.91887 18.8528 3.04653C18.9663 3.17419 19.0481 3.32676 19.0917 3.49191C19.3095 4.33566 19.5726 5.88707 19.5726 8.49998C19.5726 11.1129 19.3095 12.6643 19.0917 13.508Z" fill="black"/>
</svg>
